<svg xmlns="http://www.w3.org/2000/svg" viewBox="0 0 24 24" fill="#ffffff" width="30" height="30">
  <path d="M12 2.163c3.204 0 3.584.012 4.85.07 1.366.062 
  2.633.35 3.608 1.325.975.975 1.263 2.242 
  1.325 3.608.058 1.266.069 1.646.069 
  4.834s-.012 3.568-.07 4.834c-.062 1.366-.35 
  2.633-1.325 3.608-.975.975-2.242 1.263-3.608 
  1.325-1.266.058-1.646.069-4.834.069s-3.568-.012-4.834-.07c-1.366-.062-2.633-.35-3.608-1.325-.975-.975-1.263-2.242-1.325-3.608-.058-1.266-.069-1.646-.069-4.834s.012-3.568.07-4.834c.062-1.366.35-2.633 
  1.325-3.608.975-.975 2.242-1.263 3.608-1.325 1.266-.058 
  1.646-.069 4.834-.069zm0-2.163C8.741 0 8.332.013 
  7.052.072 5.775.131 4.602.417 3.635 1.384 2.668 
  2.351 2.382 3.524 2.323 4.801 2.264 6.081 2.25 
  6.49 2.25 12s.013 5.919.072 7.199c.059 1.277.345 
  2.45 1.312 3.417.967.967 2.14 1.253 3.417 
  1.312 1.28.059 1.689.072 7.199.072s5.919-.013 
  7.199-.072c1.277-.059 2.45-.345 3.417-1.312.967-.967 
  1.253-2.14 1.312-3.417.059-1.28.072-1.689.072-7.199s-.013-5.919-.072-7.199c-.059-1.277-.345-2.45-1.312-3.417-.967-.967-2.14-1.253-3.417-1.312C17.919.013 
  17.51 0 12 0zm0 5.838a6.162 6.162 0 1 0 0 12.324 
  6.162 6.162 0 0 0 0-12.324zm0 10.162a3.999 3.999 
  0 1 1 0-7.998 3.999 3.999 0 0 1 0 7.998zm6.406-11.845a1.44 
  1.44 0 1 0 0-2.88 1.44 1.44 0 0 0 0 2.88z"/>
</svg>
