<svg xmlns="http://www.w3.org/2000/svg" viewBox="0 0 24 24" fill="#ffffff" width="30" height="30">
  <path d="M20.447 20.452h-3.554v-5.569c0-1.328-.027-3.037-1.852-3.037-1.853 
  0-2.136 1.445-2.136 2.939v5.667H9.351V9h3.414v1.561h.049c.476-.9 
  1.637-1.852 3.37-1.852 3.601 0 4.263 2.37 4.263 5.455v6.288zM5.337 
  7.433c-1.144 0-2.069-.926-2.069-2.068 0-1.144.925-2.069 
  2.069-2.069s2.068.925 2.068 2.069c0 1.142-.924 2.068-2.068 
  2.068zm1.777 13.019H3.56V9h3.554v11.452zM22.225 0H1.771C.792 
  0 0 .771 0 1.771v20.452C0 23.229.792 24 1.771 
  24h20.452C23.2 24 24 23.229 24 22.225V1.771C24 
  .771 23.2 0 22.225 0z"/>
</svg>
