<svg xmlns="http://www.w3.org/2000/svg" viewBox="0 0 24 24" fill="#ffffff" width="30" height="30">
  <path d="M24 12c0-6.627-5.373-12-12-12S0 5.373 0 12c0 5.302 
  3.438 9.8 8.207 11.385.6.111.793-.261.793-.58 
  0-.287-.011-1.244-.017-2.255-3.338.726-4.042-1.61-4.042-1.61-.546-1.387-1.333-1.757-1.333-1.757-1.089-.745.083-.73.083-.73 
  1.205.085 1.84 1.237 1.84 1.237 1.07 1.834 2.809 1.304 
  3.495.997.108-.775.418-1.305.762-1.605-2.665-.304-5.466-1.333-5.466-5.931 
  0-1.31.469-2.381 1.237-3.221-.124-.303-.536-1.523.117-3.176 
  0 0 1.008-.322 3.301 1.23a11.52 11.52 0 0 1 3.003-.404c1.018.005 
  2.044.138 3.003.404 2.292-1.552 3.298-1.23 
  3.298-1.23.655 1.653.243 2.873.12 3.176.77.84 
  1.236 1.911 1.236 3.221 0 4.61-2.805 5.624-5.476 
  5.921.43.372.823 1.102.823 2.222 0 1.606-.015 
  2.898-.015 3.293 0 .321.192.697.8.578C20.565 
  21.796 24 17.298 24 12z"/>
</svg>
