<svg xmlns="http://www.w3.org/2000/svg" viewBox="0 0 24 24" fill="#ffffff" width="30" height="30">
  <path d="M12 0C5.373 0 0 5.373 0 12c0 6.627 
  5.373 12 12 12s12-5.373 12-12c0-6.627-5.373-12-12-12zm4.5 
  17.25c-.75 1.125-2.25 1.875-4.125 1.875-2.625 
  0-4.5-1.875-4.5-4.5 0-2.625 1.875-4.5 4.5-4.5 
  1.5 0 2.625.375 3.375 1.125-.375-1.5-1.5-2.25-3.375-2.25-1.5 
  0-2.625.375-3.375 1.125l-1.125-1.125C9 7.5 10.5 
  7.125 12 7.125c3.375 0 5.25 2.25 5.25 5.625v4.5h-1.5v-.75zm-4.125-.375c1.125 
  0 2.25-.75 2.25-2.25s-1.125-2.25-2.25-2.25-2.25.75-2.25 
  2.25 1.125 2.25 2.25 2.25z"/>
</svg>
